<svg width="81" height="51" viewBox="0 0 81 51" fill="none" xmlns="http://www.w3.org/2000/svg">
<g clip-path="url(#clip0_2_186)">
<path d="M37.1781 50.6629C34.6735 50.6629 32.2777 50.6695 29.8821 50.6497C29.7134 50.6487 29.4759 50.4969 29.3882 50.3474C27.1834 46.6101 18.7699 31.4349 16.575 27.6922C15.0315 25.0599 13.4802 22.433 11.9333 19.8028C11.9089 19.7602 11.9001 19.7089 11.8545 19.5757C12.0797 19.5757 12.2662 19.5746 12.4526 19.5757C14.2725 19.5823 16.0934 19.5746 17.9122 19.5975C21.7027 19.6456 25.1804 15.7358 24.1828 11.5672C23.6713 9.42948 21.1767 6.80362 18.6234 6.65076C18.0864 6.6191 17.5504 6.53394 17.0145 6.53176C13.0685 6.52193 9.12254 6.50446 5.17662 6.54704C4.46312 6.55468 3.98263 6.29701 3.66084 5.77076C2.55673 3.96381 1.49367 2.13175 0.420632 0.306237C0.379575 0.237453 0.326312 0.158841 0.250854 0.0103547C1.67011 0.0103547 3.16038 0.0103547 4.54412 0.0103547C8.77851 0.0114465 13.013 -0.0223994 17.2475 0.0321912C18.6035 0.0507521 19.9916 0.165392 21.3043 0.480927C23.3406 0.970062 25.1193 2.02148 26.6574 3.44411C28.5072 5.15716 29.8576 7.1803 30.5068 9.60521C31.046 11.6186 31.1026 13.6668 30.6787 15.7117C29.9685 19.128 28.0622 21.7866 25.2381 23.825C24.5235 24.3403 23.5891 24.7509 22.7946 25.1778C25.5078 29.8551 34.4294 45.9277 37.1781 50.6629Z" fill="white"/>
<path d="M44.757 49.4837C42.4456 49.4837 40.6357 47.6952 40.6357 45.4134C40.6357 43.233 42.4844 41.4588 44.757 41.4588C47.0296 41.4588 48.8783 43.233 48.8783 45.4134C48.8783 47.6952 47.0684 49.4837 44.757 49.4837ZM44.757 40.033C43.2667 40.033 41.8586 40.5996 40.7911 41.6292C39.728 42.6532 39.1421 43.9973 39.1421 45.4134C39.1421 48.4442 41.661 50.9095 44.757 50.9095C47.8529 50.9095 50.3718 48.4442 50.3718 45.4134C50.3718 43.9973 49.7859 42.6532 48.7229 41.6292C47.6555 40.5996 46.2473 40.033 44.757 40.033Z" fill="white"/>
<path d="M56.6202 49.4837C54.31 49.4837 52.499 47.6952 52.499 45.4134C52.499 43.233 54.3477 41.4588 56.6202 41.4588C58.8928 41.4588 60.7426 43.233 60.7426 45.4134C60.7426 47.6952 58.9317 49.4837 56.6202 49.4837ZM56.6202 40.033C55.1311 40.033 53.7218 40.5996 52.6543 41.6292C51.5912 42.6532 51.0065 43.9973 51.0065 45.4134C51.0065 48.4442 53.5254 50.9095 56.6202 50.9095C59.7161 50.9095 62.2351 48.4442 62.2351 45.4134C62.2351 43.9973 61.6503 42.6532 60.5873 41.6292C59.5187 40.5996 58.1105 40.033 56.6202 40.033Z" fill="white"/>
<path d="M61.9233 41.5595H65.4499V50.7951H66.8991V41.5595H70.4112V40.176H61.9233V41.5595Z" fill="white"/>
<path d="M56.0034 34.4376C53.733 34.4376 51.9542 32.6809 51.9542 30.4394C51.9542 28.2962 53.7707 26.5536 56.0034 26.5536C58.236 26.5536 60.0525 28.2962 60.0525 30.4394C60.0525 32.6809 58.2737 34.4376 56.0034 34.4376ZM56.0034 25.1528C54.5397 25.1528 53.1559 25.7096 52.1074 26.7207C51.062 27.7273 50.4872 29.0473 50.4872 30.4394C50.4872 33.4157 52.9618 35.8384 56.0034 35.8384C59.0449 35.8384 61.5195 33.4157 61.5195 30.4394C61.5195 29.0473 60.9446 27.7273 59.9004 26.7207C58.8507 25.7096 57.4669 25.1528 56.0034 25.1528Z" fill="white"/>
<path d="M80.9429 26.6517V25.2935H73.5759V35.7257H80.9429V34.3664H74.9996V31.0517H80.6566V29.6935H74.9996V26.6517H80.9429Z" fill="white"/>
<path d="M69.4501 33.2768C68.8687 33.8806 67.9477 34.2256 66.635 34.3304L66.4618 34.3446V34.3664H64.3679V26.6517H66.4618V26.6735L66.635 26.6877C67.9477 26.7936 68.8687 27.1376 69.4501 27.7424C70.0305 28.3451 70.3124 29.2502 70.3124 30.509C70.3124 31.7679 70.0305 32.6731 69.4501 33.2768ZM70.602 26.7194C69.7775 25.8787 68.5258 25.4344 66.6627 25.3219L66.484 25.3109V25.2935H62.7811V35.7247H66.484V35.7083L66.6627 35.6974C68.5258 35.5849 69.7775 35.1405 70.602 34.2988C71.4176 33.4668 71.7982 32.2625 71.7982 30.509C71.7982 28.7567 71.4176 27.5524 70.602 26.7194Z" fill="white"/>
<path d="M47.0785 30.1575C46.3138 30.1575 45.5682 30.0712 44.8536 29.9097C40.5348 28.9293 37.1802 24.7192 37.1802 20.4186C37.1802 16.2904 40.0798 12.6678 44.038 11.4351C49.8226 9.63364 56.2797 13.6592 57.1919 19.4064H62.9321C62.7623 17.855 62.3162 16.3089 61.6216 14.8372L61.5517 14.6909C60.7871 13.1143 59.7385 11.6262 58.4424 10.3138C57.9531 9.8181 57.4382 9.35953 56.9011 8.93485C56.2353 8.40093 55.5251 7.91725 54.7762 7.49581C52.4336 6.17472 49.7716 5.47705 47.0785 5.47705C42.9482 5.47705 39.0389 7.04708 36.0706 9.89676C33.1067 12.7431 31.4744 16.4803 31.4744 20.4186C31.4744 22.4275 31.9593 24.4659 32.8626 26.3766H32.8338L32.9492 26.5589C33.7126 28.1213 34.7545 29.5963 36.0407 30.8967C36.4101 31.2722 36.7952 31.626 37.1924 31.9601C37.967 32.6239 38.8081 33.2146 39.7036 33.719C42.0461 35.0401 44.7093 35.7378 47.4024 35.7378C47.7475 35.7378 48.0916 35.7258 48.4333 35.704V30.1827C48.1525 30.1859 48.0427 30.1717 47.732 30.1739C47.6354 30.1695 47.2604 30.1575 47.0785 30.1575Z" fill="white"/>
<path d="M47.0763 30.1565C46.3118 30.1565 45.566 30.0703 44.8514 29.9086C40.5326 28.9282 37.1782 24.7182 37.1782 20.4175C37.1782 16.2894 40.0777 12.6667 44.0358 11.4341C49.8216 9.63259 56.2776 13.6581 57.1897 19.4054H62.93C62.7602 17.854 62.3141 16.308 61.6194 14.8351L61.5496 14.6899C60.785 13.1133 59.7364 11.6241 58.4403 10.3128C57.9509 9.81714 57.4361 9.35745 56.899 8.93381C56.2332 8.39886 55.523 7.91628 54.774 7.49375C52.4315 6.17375 49.7694 5.47607 47.0763 5.47607C42.9462 5.47607 39.0368 7.0461 36.0685 9.89572C33.1046 12.7421 31.4723 16.4783 31.4723 20.4175C31.4723 22.4265 31.9572 24.4638 32.8604 26.3755H32.8316L32.947 26.5579C33.7105 28.1203 34.7524 29.5953 36.0385 30.8957C36.4081 31.2702 36.7931 31.625 37.1904 31.9591C37.966 32.623 38.806 33.2136 39.7015 33.718C42.044 35.0391 44.7072 35.7368 47.4003 35.7368C47.7455 35.7368 48.0894 35.7248 48.4312 35.7029V30.1816C47.8386 30.175 47.6921 30.1729 47.0763 30.1565Z" fill="white"/>
<path d="M37.1758 50.6618C34.6713 50.6618 32.2755 50.6684 29.8798 50.6488C29.7111 50.6477 29.4736 50.4948 29.386 50.3463C27.1811 46.6091 18.7677 31.434 16.5728 27.6912C15.0292 25.0589 13.478 22.432 11.931 19.8017C11.9067 19.7592 11.8978 19.7079 11.8523 19.5735C12.0775 19.5735 12.2639 19.5735 12.4515 19.5747C14.2702 19.5801 16.0912 19.5735 17.9099 19.5965C21.7005 19.6445 25.1782 15.7348 24.1806 11.5652C23.6691 9.42739 21.1745 6.80264 18.6212 6.64979C18.0841 6.61812 17.5482 6.53296 17.0122 6.53078C13.0663 6.52096 9.12034 6.50349 5.17433 6.54607C4.46083 6.55371 3.98034 6.29604 3.65854 5.76979C2.55444 3.96174 1.49249 2.13077 0.418341 0.305259C0.377284 0.235383 0.0255221 0.140396 0 0.0093781C1.41814 0.0093781 3.15809 0.0093781 4.54184 0.0093781C8.77631 0.0104699 13.0108 -0.023376 17.2452 0.0312147C18.6013 0.0497755 19.9894 0.164415 21.3021 0.478857C23.3384 0.967989 25.1171 2.0205 26.6551 3.44313C28.5049 5.1551 29.8554 7.17931 30.5056 9.60425C31.0438 11.6175 31.1016 13.6658 30.6765 15.7108C29.9663 19.1271 28.06 21.7856 25.2359 23.824C24.5956 24.287 23.8454 24.6035 23.1464 24.9868C23.0409 25.0446 22.9344 25.1004 22.7924 25.1768C25.5055 29.8541 34.4272 45.9267 37.1758 50.6618Z" fill="white"/>
</g>
<defs>
<clipPath id="clip0_2_186">
<rect width="81" height="51" fill="white"/>
</clipPath>
</defs>
</svg>
